<svg width="132" height="26" viewBox="0 0 132 26" fill="none" xmlns="http://www.w3.org/2000/svg">
<path d="M8.31818 25.3409C6.52273 25.3409 5.04545 24.9621 3.88636 24.2045C2.73485 23.4394 1.92803 22.3788 1.46591 21.0227C1.01136 19.6667 0.931818 18.1061 1.22727 16.3409C1.51515 14.553 2.11742 12.9848 3.03409 11.6364C3.95076 10.2803 5.11364 9.22348 6.52273 8.46591C7.93939 7.70076 9.5303 7.31818 11.2955 7.31818C12.8182 7.31818 14.1061 7.5947 15.1591 8.14773C16.2121 8.70076 16.9848 9.47727 17.4773 10.4773C17.9697 11.4773 18.1364 12.6515 17.9773 14H13.4205C13.428 13.1364 13.2045 12.4356 12.75 11.8977C12.2955 11.3598 11.6288 11.0909 10.75 11.0909C9.99242 11.0909 9.29545 11.2955 8.65909 11.7045C8.0303 12.1061 7.49621 12.6932 7.05682 13.4659C6.625 14.2386 6.32197 15.1742 6.14773 16.2727C5.96591 17.3864 5.96212 18.3333 6.13636 19.1136C6.31061 19.8939 6.64394 20.4886 7.13636 20.8977C7.62879 21.3068 8.25 21.5114 9 21.5114C9.56061 21.5114 10.0795 21.3977 10.5568 21.1705C11.0417 20.9432 11.4659 20.6136 11.8295 20.1818C12.1932 19.7424 12.4735 19.2159 12.6705 18.6023H17.2386C16.928 19.9432 16.3636 21.1174 15.5455 22.125C14.7348 23.1326 13.7159 23.9205 12.4886 24.4886C11.2614 25.0568 9.87121 25.3409 8.31818 25.3409ZM29.4503 17.5682L31.1208 7.54545H35.9617L33.0526 25H28.4049L28.9276 21.8295H28.7458C28.2079 22.8523 27.4238 23.6742 26.3935 24.2955C25.3632 24.9167 24.1928 25.2273 22.8822 25.2273C21.7155 25.2273 20.7306 24.9621 19.9276 24.4318C19.1322 23.9015 18.5678 23.1477 18.2344 22.1705C17.9011 21.1932 17.8443 20.0227 18.064 18.6591L19.9276 7.54545H24.7685L23.064 17.7955C22.9049 18.8258 23.0488 19.6402 23.4958 20.2386C23.9428 20.8371 24.6246 21.1364 25.5413 21.1364C26.1246 21.1364 26.689 21.0038 27.2344 20.7386C27.7875 20.4659 28.2647 20.0644 28.6663 19.5341C29.0678 19.0038 29.3291 18.3485 29.4503 17.5682ZM43.3893 1.72727L39.5257 25H34.6848L38.5484 1.72727H43.3893ZM53.3567 7.54545L52.7544 11.1818H42.2317L42.8453 7.54545H53.3567ZM45.9135 3.36364H50.7544L48.0499 19.6364C47.9741 20.0833 47.9855 20.4318 48.084 20.6818C48.1825 20.9242 48.3453 21.0947 48.5726 21.1932C48.8075 21.2917 49.0878 21.3409 49.4135 21.3409C49.6408 21.3409 49.8719 21.322 50.1067 21.2841C50.3416 21.2386 50.5196 21.2045 50.6408 21.1818L50.8226 24.7841C50.5499 24.8674 50.1825 24.9583 49.7203 25.0568C49.2658 25.1553 48.7279 25.2159 48.1067 25.2386C46.9249 25.2841 45.9249 25.1288 45.1067 24.7727C44.2885 24.4091 43.7014 23.8523 43.3453 23.1023C42.9893 22.3523 42.9135 21.4091 43.1181 20.2727L45.9135 3.36364ZM63.7928 17.5682L65.4633 7.54545H70.3042L67.3951 25H62.7474L63.2701 21.8295H63.0883C62.5504 22.8523 61.7663 23.6742 60.736 24.2955C59.7057 24.9167 58.5353 25.2273 57.2247 25.2273C56.058 25.2273 55.0731 24.9621 54.2701 24.4318C53.4747 23.9015 52.9103 23.1477 52.5769 22.1705C52.2436 21.1932 52.1868 20.0227 52.4065 18.6591L54.2701 7.54545H59.111L57.4065 17.7955C57.2474 18.8258 57.3913 19.6402 57.8383 20.2386C58.2853 20.8371 58.9671 21.1364 59.8838 21.1364C60.4671 21.1364 61.0315 21.0038 61.5769 20.7386C62.13 20.4659 62.6072 20.0644 63.0088 19.5341C63.4103 19.0038 63.6716 18.3485 63.7928 17.5682ZM69.0273 25L71.9364 7.54545H76.6295L76.1182 10.5909H76.3C76.8 9.50758 77.4705 8.68939 78.3114 8.13636C79.1599 7.57576 80.0727 7.29545 81.05 7.29545C81.2924 7.29545 81.5462 7.31061 81.8114 7.34091C82.0841 7.36364 82.3265 7.40151 82.5386 7.45454L81.8114 11.7614C81.5992 11.6856 81.2962 11.625 80.9023 11.5795C80.5159 11.5265 80.1485 11.5 79.8 11.5C79.0955 11.5 78.4402 11.6553 77.8341 11.9659C77.228 12.2689 76.7167 12.6932 76.3 13.2386C75.8909 13.7841 75.622 14.4129 75.4932 15.125L73.8682 25H69.0273ZM86.9776 25.3409C85.1897 25.3409 83.7087 24.9773 82.5344 24.25C81.3602 23.5152 80.5344 22.4773 80.0572 21.1364C79.5875 19.7879 79.5079 18.1932 79.8185 16.3523C80.1216 14.5568 80.7314 12.9811 81.6481 11.625C82.5723 10.2689 83.7314 9.21212 85.1253 8.45454C86.5193 7.69697 88.0723 7.31818 89.7844 7.31818C90.9359 7.31818 91.9776 7.50379 92.9094 7.875C93.8488 8.23864 94.6291 8.79167 95.2503 9.53409C95.8716 10.2689 96.2958 11.1894 96.5231 12.2955C96.7579 13.4015 96.7541 14.697 96.5117 16.1818L96.2958 17.5114H81.5685L82.0344 14.5114H92.2162C92.3299 13.8144 92.2844 13.197 92.0799 12.6591C91.8753 12.1212 91.5344 11.7008 91.0572 11.3977C90.5799 11.0871 89.9928 10.9318 89.2958 10.9318C88.5837 10.9318 87.917 11.1061 87.2958 11.4545C86.6746 11.803 86.1519 12.2614 85.7276 12.8295C85.3109 13.3902 85.042 14 84.9208 14.6591L84.3867 17.6364C84.2352 18.553 84.2655 19.3144 84.4776 19.9205C84.6973 20.5265 85.0761 20.9811 85.614 21.2841C86.1519 21.5795 86.8337 21.7273 87.6594 21.7273C88.1973 21.7273 88.7011 21.6515 89.1708 21.5C89.6481 21.3485 90.0723 21.125 90.4435 20.8295C90.8147 20.5265 91.1178 20.1515 91.3526 19.7045L95.7731 20C95.364 21.0758 94.7428 22.0152 93.9094 22.8182C93.0761 23.6136 92.0723 24.2348 90.8981 24.6818C89.7314 25.1212 88.4246 25.3409 86.9776 25.3409ZM113.583 17.5682L115.253 7.54545H120.094L117.185 25H112.537L113.06 21.8295H112.878C112.34 22.8523 111.556 23.6742 110.526 24.2955C109.496 24.9167 108.325 25.2273 107.015 25.2273C105.848 25.2273 104.863 24.9621 104.06 24.4318C103.265 23.9015 102.7 23.1477 102.367 22.1705C102.034 21.1932 101.977 20.0227 102.196 18.6591L104.06 7.54545H108.901L107.196 17.7955C107.037 18.8258 107.181 19.6402 107.628 20.2386C108.075 20.8371 108.757 21.1364 109.674 21.1364C110.257 21.1364 110.821 21.0038 111.367 20.7386C111.92 20.4659 112.397 20.0644 112.799 19.5341C113.2 19.0038 113.462 18.3485 113.583 17.5682ZM118.817 25L121.726 7.54545H126.567L123.658 25H118.817ZM124.647 5.27273C123.927 5.27273 123.332 5.03409 122.863 4.55682C122.401 4.07197 122.211 3.49621 122.295 2.82954C122.378 2.14773 122.704 1.57197 123.272 1.10227C123.84 0.624999 124.484 0.386362 125.204 0.386362C125.923 0.386362 126.51 0.624999 126.965 1.10227C127.42 1.57197 127.609 2.14773 127.533 2.82954C127.457 3.49621 127.135 4.07197 126.567 4.55682C126.007 5.03409 125.367 5.27273 124.647 5.27273ZM128.341 25.2955C127.576 25.2955 126.948 25.0303 126.455 24.5C125.97 23.9697 125.751 23.3258 125.796 22.5682C125.849 21.8182 126.163 21.1856 126.739 20.6705C127.323 20.1477 127.993 19.8864 128.751 19.8864C129.478 19.8864 130.091 20.1477 130.591 20.6705C131.091 21.1932 131.311 21.8258 131.251 22.5682C131.213 23.0682 131.05 23.5265 130.762 23.9432C130.482 24.3523 130.126 24.6818 129.694 24.9318C129.262 25.1742 128.811 25.2955 128.341 25.2955Z" fill="black"/>
</svg>
