<svg width="131" height="26" viewBox="0 0 131 26" fill="none" xmlns="http://www.w3.org/2000/svg">
<path d="M7.64318 25.3409C5.84772 25.3409 4.37045 24.9621 3.21136 24.2045C2.05985 23.4394 1.25303 22.3788 0.790906 21.0227C0.336361 19.6667 0.256815 18.1061 0.55227 16.3409C0.840149 14.553 1.44242 12.9848 2.35909 11.6364C3.27575 10.2803 4.43863 9.22348 5.84772 8.46591C7.26439 7.70076 8.8553 7.31818 10.6205 7.31818C12.1432 7.31818 13.4311 7.5947 14.4841 8.14773C15.5371 8.70076 16.3098 9.47727 16.8023 10.4773C17.2947 11.4773 17.4614 12.6515 17.3023 14H12.7455C12.753 13.1364 12.5295 12.4356 12.075 11.8977C11.6205 11.3598 10.9538 11.0909 10.075 11.0909C9.31742 11.0909 8.62045 11.2955 7.98409 11.7045C7.3553 12.1061 6.82121 12.6932 6.38182 13.4659C5.95 14.2386 5.64697 15.1742 5.47272 16.2727C5.29091 17.3864 5.28712 18.3333 5.46136 19.1136C5.6356 19.8939 5.96894 20.4886 6.46136 20.8977C6.95378 21.3068 7.575 21.5114 8.325 21.5114C8.8856 21.5114 9.40454 21.3977 9.88182 21.1705C10.3667 20.9432 10.7909 20.6136 11.1545 20.1818C11.5182 19.7424 11.7985 19.2159 11.9955 18.6023H16.5636C16.253 19.9432 15.6886 21.1174 14.8705 22.125C14.0598 23.1326 13.0409 23.9205 11.8136 24.4886C10.5864 25.0568 9.19621 25.3409 7.64318 25.3409ZM28.7753 17.5682L30.4458 7.54545H35.2867L32.3776 25H27.7299L28.2526 21.8295H28.0708C27.5329 22.8523 26.7488 23.6742 25.7185 24.2955C24.6882 24.9167 23.5178 25.2273 22.2072 25.2273C21.0405 25.2273 20.0556 24.9621 19.2526 24.4318C18.4572 23.9015 17.8928 23.1477 17.5594 22.1705C17.2261 21.1932 17.1693 20.0227 17.389 18.6591L19.2526 7.54545H24.0935L22.389 17.7955C22.2299 18.8258 22.3738 19.6402 22.8208 20.2386C23.2678 20.8371 23.9496 21.1364 24.8662 21.1364C25.4496 21.1364 26.014 21.0038 26.5594 20.7386C27.1125 20.4659 27.5897 20.0644 27.9912 19.5341C28.3928 19.0038 28.6541 18.3485 28.7753 17.5682ZM42.7143 1.72727L38.8507 25H34.0098L37.8734 1.72727H42.7143ZM52.6817 7.54545L52.0794 11.1818H41.5567L42.1703 7.54545H52.6817ZM45.2385 3.36364H50.0794L47.3749 19.6364C47.2991 20.0833 47.3105 20.4318 47.409 20.6818C47.5075 20.9242 47.6703 21.0947 47.8976 21.1932C48.1325 21.2917 48.4128 21.3409 48.7385 21.3409C48.9658 21.3409 49.1969 21.322 49.4317 21.2841C49.6665 21.2386 49.8446 21.2045 49.9658 21.1818L50.1476 24.7841C49.8749 24.8674 49.5075 24.9583 49.0453 25.0568C48.5908 25.1553 48.0529 25.2159 47.4317 25.2386C46.2499 25.2841 45.2499 25.1288 44.4317 24.7727C43.6135 24.4091 43.0264 23.8523 42.6703 23.1023C42.3143 22.3523 42.2385 21.4091 42.4431 20.2727L45.2385 3.36364ZM63.1178 17.5682L64.7883 7.54545H69.6292L66.7201 25H62.0724L62.5951 21.8295H62.4133C61.8754 22.8523 61.0913 23.6742 60.061 24.2955C59.0307 24.9167 57.8603 25.2273 56.5497 25.2273C55.383 25.2273 54.3981 24.9621 53.5951 24.4318C52.7997 23.9015 52.2353 23.1477 51.9019 22.1705C51.5686 21.1932 51.5118 20.0227 51.7315 18.6591L53.5951 7.54545H58.436L56.7315 17.7955C56.5724 18.8258 56.7163 19.6402 57.1633 20.2386C57.6103 20.8371 58.2921 21.1364 59.2087 21.1364C59.7921 21.1364 60.3565 21.0038 60.9019 20.7386C61.455 20.4659 61.9322 20.0644 62.3337 19.5341C62.7353 19.0038 62.9966 18.3485 63.1178 17.5682ZM68.3523 25L71.2614 7.54545H75.9545L75.4432 10.5909H75.625C76.125 9.50758 76.7955 8.68939 77.6364 8.13636C78.4848 7.57576 79.3977 7.29545 80.375 7.29545C80.6174 7.29545 80.8712 7.31061 81.1364 7.34091C81.4091 7.36364 81.6515 7.40151 81.8636 7.45454L81.1364 11.7614C80.9242 11.6856 80.6212 11.625 80.2273 11.5795C79.8409 11.5265 79.4735 11.5 79.125 11.5C78.4205 11.5 77.7652 11.6553 77.1591 11.9659C76.553 12.2689 76.0417 12.6932 75.625 13.2386C75.2159 13.7841 74.947 14.4129 74.8182 15.125L73.1932 25H68.3523ZM86.3026 25.3409C84.5147 25.3409 83.0337 24.9773 81.8594 24.25C80.6852 23.5152 79.8594 22.4773 79.3822 21.1364C78.9125 19.7879 78.8329 18.1932 79.1435 16.3523C79.4465 14.5568 80.0564 12.9811 80.9731 11.625C81.8973 10.2689 83.0564 9.21212 84.4503 8.45454C85.8443 7.69697 87.3973 7.31818 89.1094 7.31818C90.2609 7.31818 91.3026 7.50379 92.2344 7.875C93.1738 8.23864 93.9541 8.79167 94.5753 9.53409C95.1965 10.2689 95.6208 11.1894 95.8481 12.2955C96.0829 13.4015 96.0791 14.697 95.8367 16.1818L95.6208 17.5114H80.8935L81.3594 14.5114H91.5412C91.6549 13.8144 91.6094 13.197 91.4049 12.6591C91.2003 12.1212 90.8594 11.7008 90.3822 11.3977C89.9049 11.0871 89.3178 10.9318 88.6208 10.9318C87.9087 10.9318 87.242 11.1061 86.6208 11.4545C85.9996 11.803 85.4769 12.2614 85.0526 12.8295C84.6359 13.3902 84.367 14 84.2458 14.6591L83.7117 17.6364C83.5602 18.553 83.5905 19.3144 83.8026 19.9205C84.0223 20.5265 84.4011 20.9811 84.939 21.2841C85.4769 21.5795 86.1587 21.7273 86.9844 21.7273C87.5223 21.7273 88.0261 21.6515 88.4958 21.5C88.9731 21.3485 89.3973 21.125 89.7685 20.8295C90.1397 20.5265 90.4428 20.1515 90.6776 19.7045L95.0981 20C94.689 21.0758 94.0678 22.0152 93.2344 22.8182C92.4011 23.6136 91.3973 24.2348 90.2231 24.6818C89.0564 25.1212 87.7496 25.3409 86.3026 25.3409ZM112.908 17.5682L114.578 7.54545H119.419L116.51 25H111.862L112.385 21.8295H112.203C111.665 22.8523 110.881 23.6742 109.851 24.2955C108.821 24.9167 107.65 25.2273 106.34 25.2273C105.173 25.2273 104.188 24.9621 103.385 24.4318C102.59 23.9015 102.025 23.1477 101.692 22.1705C101.359 21.1932 101.302 20.0227 101.521 18.6591L103.385 7.54545H108.226L106.521 17.7955C106.362 18.8258 106.506 19.6402 106.953 20.2386C107.4 20.8371 108.082 21.1364 108.999 21.1364C109.582 21.1364 110.146 21.0038 110.692 20.7386C111.245 20.4659 111.722 20.0644 112.124 19.5341C112.525 19.0038 112.787 18.3485 112.908 17.5682ZM118.142 25L121.051 7.54545H125.892L122.983 25H118.142ZM123.972 5.27273C123.252 5.27273 122.657 5.03409 122.188 4.55682C121.726 4.07197 121.536 3.49621 121.62 2.82954C121.703 2.14773 122.029 1.57197 122.597 1.10227C123.165 0.624999 123.809 0.386362 124.529 0.386362C125.248 0.386362 125.835 0.624999 126.29 1.10227C126.745 1.57197 126.934 2.14773 126.858 2.82954C126.782 3.49621 126.46 4.07197 125.892 4.55682C125.332 5.03409 124.692 5.27273 123.972 5.27273ZM127.666 25.2955C126.901 25.2955 126.273 25.0303 125.78 24.5C125.295 23.9697 125.076 23.3258 125.121 22.5682C125.174 21.8182 125.488 21.1856 126.064 20.6705C126.648 20.1477 127.318 19.8864 128.076 19.8864C128.803 19.8864 129.416 20.1477 129.916 20.6705C130.416 21.1932 130.636 21.8258 130.576 22.5682C130.538 23.0682 130.375 23.5265 130.087 23.9432C129.807 24.3523 129.451 24.6818 129.019 24.9318C128.587 25.1742 128.136 25.2955 127.666 25.2955Z" fill="white"/>
</svg>
