<svg width="1251" height="199" viewBox="0 0 1251 199" fill="none" xmlns="http://www.w3.org/2000/svg">
<mask id="path-1-outside-1_179_3350" maskUnits="userSpaceOnUse" x="0" y="0" width="1251" height="199" fill="black">
<rect fill="white" width="1251" height="199"/>
<path d="M91.6924 196.913C72.9104 196.913 56.824 192.826 43.4331 184.652C30.0423 176.392 19.7383 164.914 12.5211 150.219C5.39092 135.524 1.82582 118.481 1.82582 99.0901C1.82582 79.6995 5.39092 62.6566 12.5211 47.9614C19.7383 33.2662 30.0423 21.8318 43.4331 13.6582C56.824 5.39762 72.9104 1.26732 91.6924 1.26732C113.344 1.26732 131.387 6.70192 145.821 17.5711C160.255 28.3534 170.385 42.9181 176.211 61.2653L144.517 70.0041C140.865 57.7437 134.647 48.1788 125.865 41.3094C117.083 34.3532 105.692 30.875 91.6924 30.875C79.0841 30.875 68.5627 33.701 60.1282 39.353C51.7807 45.005 45.4765 52.9612 41.2158 63.2218C37.042 73.3953 34.9117 85.3514 34.8247 99.0901C34.8247 112.829 36.9116 124.828 41.0854 135.089C45.3461 145.262 51.6937 153.175 60.1282 158.827C68.5627 164.479 79.0841 167.305 91.6924 167.305C105.692 167.305 117.083 163.827 125.865 156.871C134.647 149.914 140.865 140.35 144.517 128.176L176.211 136.915C170.385 155.262 160.255 169.87 145.821 180.74C131.387 191.522 113.344 196.913 91.6924 196.913ZM257.673 197.043C247.239 197.043 238.63 195.304 231.848 191.826C225.066 188.348 219.674 183.913 215.675 178.522C211.675 173.131 208.718 167.392 206.805 161.305C204.892 155.219 203.632 149.48 203.023 144.089C202.501 138.611 202.24 134.176 202.24 130.785V52.1352H234.065V119.959C234.065 124.307 234.37 129.22 234.978 134.698C235.587 140.089 236.978 145.306 239.152 150.349C241.413 155.306 244.717 159.392 249.065 162.61C253.499 165.827 259.456 167.436 266.934 167.436C270.934 167.436 274.89 166.783 278.803 165.479C282.716 164.175 286.237 161.958 289.368 158.827C292.585 155.61 295.15 151.219 297.063 145.654C298.976 140.089 299.933 133.045 299.933 124.524L318.584 132.48C318.584 144.48 316.236 155.349 311.541 165.088C306.932 174.827 300.107 182.609 291.063 188.435C282.02 194.174 270.89 197.043 257.673 197.043ZM303.715 193V149.306H299.933V52.1352H331.497V193H303.715ZM370.75 193V1.26732H402.184V193H370.75ZM523.816 193C514.512 194.739 505.382 195.478 496.426 195.217C487.557 195.043 479.601 193.435 472.557 190.391C465.514 187.261 460.166 182.348 456.514 175.653C453.297 169.566 451.601 163.349 451.428 157.001C451.254 150.654 451.167 143.48 451.167 135.48V13.006H482.47V133.654C482.47 139.306 482.513 144.263 482.6 148.523C482.774 152.784 483.687 156.262 485.339 158.958C488.47 164.175 493.47 167.088 500.339 167.697C507.208 168.305 515.034 167.957 523.816 166.653V193ZM425.602 76.7865V52.1352H523.816V76.7865H425.602ZM606.931 197.043C596.497 197.043 587.888 195.304 581.106 191.826C574.324 188.348 568.932 183.913 564.933 178.522C560.933 173.131 557.976 167.392 556.063 161.305C554.15 155.219 552.889 149.48 552.281 144.089C551.759 138.611 551.498 134.176 551.498 130.785V52.1352H583.323V119.959C583.323 124.307 583.628 129.22 584.236 134.698C584.845 140.089 586.236 145.306 588.41 150.349C590.671 155.306 593.975 159.392 598.323 162.61C602.757 165.827 608.714 167.436 616.192 167.436C620.192 167.436 624.148 166.783 628.061 165.479C631.974 164.175 635.495 161.958 638.626 158.827C641.843 155.61 644.408 151.219 646.321 145.654C648.234 140.089 649.191 133.045 649.191 124.524L667.842 132.48C667.842 144.48 665.494 155.349 660.799 165.088C656.19 174.827 649.364 182.609 640.321 188.435C631.278 194.174 620.148 197.043 606.931 197.043ZM652.973 193V149.306H649.191V52.1352H680.755V193H652.973ZM717.4 193V52.1352H745.181V86.4384L741.79 82.0037C743.529 77.3082 745.833 73.0475 748.703 69.2216C751.659 65.3086 755.181 62.0914 759.268 59.5697C762.746 57.222 766.572 55.3959 770.746 54.0916C775.006 52.7004 779.354 51.8743 783.789 51.6134C788.223 51.2656 792.527 51.4395 796.701 52.1352V81.482C792.527 80.2647 787.702 79.8734 782.223 80.3081C776.832 80.7429 771.963 82.2646 767.615 84.8732C763.268 87.2209 759.702 90.2208 756.92 93.8729C754.224 97.5249 752.224 101.699 750.92 106.394C749.616 111.003 748.964 116.003 748.964 121.394V193H717.4ZM883.085 196.913C868.825 196.913 856.303 193.826 845.521 187.652C834.739 181.479 826.304 172.914 820.217 161.958C814.218 151.001 811.218 138.393 811.218 124.133C811.218 108.742 814.174 95.3946 820.087 84.0906C826 72.6997 834.217 63.8739 844.738 57.6132C855.26 51.3526 867.433 48.2223 881.259 48.2223C895.867 48.2223 908.258 51.6569 918.432 58.5263C928.692 65.3086 936.301 74.917 941.257 87.3514C946.213 99.7857 948.083 114.437 946.865 131.306H915.693V119.829C915.606 104.525 912.91 93.3512 907.606 86.3079C902.302 79.2647 893.954 75.7431 882.563 75.7431C869.694 75.7431 860.129 79.7429 853.868 87.7427C847.608 95.6554 844.478 107.264 844.478 122.568C844.478 136.828 847.608 147.871 853.868 155.697C860.129 163.523 869.259 167.436 881.259 167.436C888.998 167.436 895.65 165.74 901.215 162.349C906.867 158.871 911.214 153.871 914.258 147.349L945.3 156.74C939.909 169.436 931.562 179.305 920.258 186.348C909.041 193.391 896.65 196.913 883.085 196.913ZM834.565 131.306V107.568H931.475V131.306H834.565ZM1103.84 196.913C1088.88 196.913 1075.71 193.87 1064.32 187.783C1053.02 181.696 1044.15 173.131 1037.71 162.088C1031.36 151.045 1028.19 138.089 1028.19 123.22V5.44109L1060.02 5.18023V122.437C1060.02 129.48 1061.19 135.785 1063.54 141.35C1065.97 146.915 1069.23 151.654 1073.32 155.566C1077.41 159.392 1082.1 162.305 1087.41 164.305C1092.71 166.305 1098.19 167.305 1103.84 167.305C1109.67 167.305 1115.19 166.305 1120.41 164.305C1125.71 162.218 1130.4 159.262 1134.49 155.436C1138.58 151.523 1141.8 146.784 1144.14 141.219C1146.49 135.654 1147.66 129.393 1147.66 122.437V5.18023H1179.49V123.22C1179.49 138.089 1176.27 151.045 1169.84 162.088C1163.49 173.131 1154.62 181.696 1143.23 187.783C1131.93 193.87 1118.8 196.913 1103.84 196.913ZM1218.55 193V5.18023H1249.98V193H1218.55Z"/>
</mask>
<path d="M43.4331 184.652L42.9081 185.504L42.9121 185.506L43.4331 184.652ZM12.5211 150.219L11.6214 150.655L11.6235 150.66L12.5211 150.219ZM12.5211 47.9614L11.6235 47.5206L11.6214 47.5249L12.5211 47.9614ZM43.4331 13.6582L43.9541 14.5118L43.9581 14.5093L43.4331 13.6582ZM145.821 17.5711L145.219 18.37L145.223 18.3723L145.821 17.5711ZM176.211 61.2653L176.477 62.2293L177.479 61.9531L177.164 60.9627L176.211 61.2653ZM144.517 70.0041L143.558 70.2896L143.838 71.2286L144.782 70.9682L144.517 70.0041ZM125.865 41.3094L125.244 42.0933L125.249 42.0971L125.865 41.3094ZM60.1282 39.353L59.5715 38.5222L59.5676 38.5249L60.1282 39.353ZM41.2158 63.2218L40.2923 62.8382L40.2906 62.8422L41.2158 63.2218ZM34.8247 99.0901L33.8247 99.0838V99.0901H34.8247ZM41.0854 135.089L40.159 135.466L40.163 135.475L41.0854 135.089ZM60.1282 158.827L60.6849 157.997L60.1282 158.827ZM125.865 156.871L125.244 156.087L125.865 156.871ZM144.517 128.176L144.782 127.212L143.84 126.952L143.559 127.889L144.517 128.176ZM176.211 136.915L177.164 137.218L177.479 136.227L176.477 135.951L176.211 136.915ZM145.821 180.74L146.419 181.541L146.423 181.538L145.821 180.74ZM91.6924 195.913C73.0577 195.913 57.1596 191.859 43.9541 183.799L42.9121 185.506C56.4884 193.793 72.7631 197.913 91.6924 197.913V195.913ZM43.9581 183.801C30.7343 175.644 20.5563 164.311 13.4187 149.778L11.6235 150.66C18.9202 165.517 29.3502 177.14 42.9081 185.504L43.9581 183.801ZM13.4208 149.782C6.36786 135.246 2.82582 118.358 2.82582 99.0901H0.825824C0.825824 118.604 4.41398 135.801 11.6214 150.655L13.4208 149.782ZM2.82582 99.0901C2.82582 79.8226 6.36786 62.9339 13.4208 48.3979L11.6214 47.5249C4.41398 62.3792 0.825824 79.5763 0.825824 99.0901H2.82582ZM13.4187 48.4022C20.5559 33.8698 30.7327 22.582 43.9541 14.5118L42.9121 12.8046C29.3518 21.0817 18.9206 32.6627 11.6235 47.5206L13.4187 48.4022ZM43.9581 14.5093C57.1629 6.36347 73.0596 2.26733 91.6924 2.26733V0.267326C72.7612 0.267326 56.485 4.43176 42.9081 12.8071L43.9581 14.5093ZM91.6924 2.26733C113.171 2.26733 130.991 7.65566 145.219 18.37L146.423 16.7723C131.783 5.74818 113.517 0.267326 91.6924 0.267326V2.26733ZM145.223 18.3723C159.478 29.0207 169.491 43.4055 175.258 61.5679L177.164 60.9627C171.28 42.4307 161.033 27.686 146.419 16.77L145.223 18.3723ZM175.945 60.3013L144.251 69.0401L144.782 70.9682L176.477 62.2293L175.945 60.3013ZM145.475 69.7187C141.773 57.2897 135.45 47.5372 126.481 40.5218L125.249 42.0971C133.845 48.8204 139.956 58.1976 143.558 70.2896L145.475 69.7187ZM126.486 40.5256C117.487 33.3974 105.86 29.875 91.6924 29.875V31.875C105.524 31.875 116.679 35.309 125.244 42.0933L126.486 40.5256ZM91.6924 29.875C78.934 29.875 68.2066 32.7359 59.5715 38.5223L60.6849 40.1837C68.9188 34.6662 79.2342 31.875 91.6924 31.875V29.875ZM59.5676 38.5249C51.0419 44.2975 44.62 52.4164 40.2923 62.8383L42.1393 63.6053C46.3331 53.506 52.5195 45.7124 60.6889 40.181L59.5676 38.5249ZM40.2906 62.8422C36.0578 73.1597 33.9123 85.2479 33.8247 99.0838L35.8247 99.0965C35.911 85.455 38.0263 73.6309 42.141 63.6013L40.2906 62.8422ZM33.8247 99.0901C33.8247 112.928 35.9265 125.061 40.1591 135.466L42.0117 134.712C37.8967 124.596 35.8247 112.73 35.8247 99.0901H33.8247ZM40.163 135.475C44.4926 145.813 50.9601 153.887 59.5715 159.658L60.6849 157.997C52.4273 152.463 46.1996 144.712 42.0078 134.703L40.163 135.475ZM59.5715 159.658C68.2066 165.444 78.934 168.305 91.6924 168.305V166.305C79.2342 166.305 68.9188 163.514 60.6849 157.997L59.5715 159.658ZM91.6924 168.305C105.86 168.305 117.487 164.783 126.486 157.655L125.244 156.087C116.679 162.871 105.524 166.305 91.6924 166.305V168.305ZM126.486 157.655C135.45 150.555 141.772 140.806 145.475 128.463L143.559 127.889C139.957 139.893 133.845 149.274 125.244 156.087L126.486 157.655ZM144.251 129.14L175.945 137.879L176.477 135.951L144.782 127.212L144.251 129.14ZM175.258 136.612C169.491 154.775 159.477 169.205 145.219 179.941L146.423 181.538C161.034 170.536 171.28 155.749 177.164 137.218L175.258 136.612ZM145.223 179.938C130.994 190.567 113.173 195.913 91.6924 195.913V197.913C113.515 197.913 131.78 192.476 146.419 181.541L145.223 179.938ZM231.848 191.826L231.392 192.716L231.848 191.826ZM215.675 178.522L214.872 179.118L215.675 178.522ZM203.023 144.089L202.027 144.183L202.028 144.192L202.029 144.201L203.023 144.089ZM202.24 52.1352V51.1352H201.24V52.1352H202.24ZM234.065 52.1352H235.065V51.1352H234.065V52.1352ZM234.978 134.698L233.984 134.808L233.985 134.81L234.978 134.698ZM239.152 150.349L238.234 150.745L238.238 150.755L238.242 150.764L239.152 150.349ZM249.065 162.61L248.47 163.414L248.478 163.419L249.065 162.61ZM278.803 165.479L278.487 164.531L278.803 165.479ZM289.368 158.827L290.075 159.534L289.368 158.827ZM297.063 145.654L298.009 145.979L297.063 145.654ZM299.933 124.524L300.325 123.604L298.933 123.01V124.524H299.933ZM318.584 132.48H319.584V131.82L318.977 131.56L318.584 132.48ZM311.541 165.088L310.64 164.654L310.637 164.66L311.541 165.088ZM291.063 188.435L291.599 189.279L291.605 189.276L291.063 188.435ZM303.715 193H302.715V194H303.715V193ZM303.715 149.306H304.715V148.306H303.715V149.306ZM299.933 149.306H298.933V150.306H299.933V149.306ZM299.933 52.1352V51.1352H298.933V52.1352H299.933ZM331.497 52.1352H332.497V51.1352H331.497V52.1352ZM331.497 193V194H332.497V193H331.497ZM257.673 196.043C247.342 196.043 238.903 194.32 232.304 190.936L231.392 192.716C238.358 196.288 247.136 198.043 257.673 198.043V196.043ZM232.304 190.936C225.64 187.519 220.374 183.178 216.478 177.926L214.872 179.118C218.975 184.648 224.491 189.177 231.392 192.716L232.304 190.936ZM216.478 177.926C212.541 172.62 209.637 166.98 207.759 161.006L205.851 161.605C207.799 167.804 210.809 173.642 214.872 179.118L216.478 177.926ZM207.759 161.006C205.862 154.97 204.617 149.294 204.017 143.976L202.029 144.201C202.646 149.666 203.922 155.468 205.851 161.605L207.759 161.006ZM204.018 143.994C203.498 138.53 203.24 134.131 203.24 130.785H201.24C201.24 134.221 201.504 138.691 202.027 144.183L204.018 143.994ZM203.24 130.785V52.1352H201.24V130.785H203.24ZM202.24 53.1352H234.065V51.1352H202.24V53.1352ZM233.065 52.1352V119.959H235.065V52.1352H233.065ZM233.065 119.959C233.065 124.352 233.373 129.302 233.984 134.808L235.972 134.587C235.367 129.137 235.065 124.262 235.065 119.959H233.065ZM233.985 134.81C234.604 140.3 236.021 145.613 238.234 150.745L240.07 149.953C237.935 144.999 236.569 139.878 235.972 134.585L233.985 134.81ZM238.242 150.764C240.573 155.874 243.985 160.095 248.47 163.414L249.66 161.806C245.449 158.69 242.253 154.738 240.062 149.934L238.242 150.764ZM248.478 163.419C253.135 166.798 259.32 168.436 266.934 168.436V166.436C259.591 166.436 253.864 164.856 249.652 161.8L248.478 163.419ZM266.934 168.436C271.044 168.436 275.107 167.765 279.119 166.428L278.487 164.531C274.673 165.802 270.823 166.436 266.934 166.436V168.436ZM279.119 166.428C283.19 165.071 286.843 162.766 290.075 159.534L288.661 158.12C285.632 161.149 282.242 163.279 278.487 164.531L279.119 166.428ZM290.075 159.534C293.426 156.183 296.06 151.647 298.009 145.979L296.117 145.329C294.24 150.791 291.744 155.037 288.661 158.12L290.075 159.534ZM298.009 145.979C299.97 140.274 300.933 133.111 300.933 124.524H298.933C298.933 132.98 297.982 139.904 296.117 145.329L298.009 145.979ZM299.54 125.444L318.192 133.4L318.977 131.56L300.325 123.604L299.54 125.444ZM317.584 132.48C317.584 144.346 315.263 155.065 310.64 164.654L312.442 165.522C317.209 155.634 319.584 144.614 319.584 132.48H317.584ZM310.637 164.66C306.108 174.23 299.408 181.87 290.522 187.594L291.605 189.276C300.805 183.348 307.757 175.423 312.445 165.516L310.637 164.66ZM290.528 187.591C281.678 193.206 270.745 196.043 257.673 196.043V198.043C271.035 198.043 282.362 195.141 291.599 189.279L290.528 187.591ZM304.715 193V149.306H302.715V193H304.715ZM303.715 148.306H299.933V150.306H303.715V148.306ZM300.933 149.306V52.1352H298.933V149.306H300.933ZM299.933 53.1352H331.497V51.1352H299.933V53.1352ZM330.497 52.1352V193H332.497V52.1352H330.497ZM331.497 192H303.715V194H331.497V192ZM370.75 193H369.75V194H370.75V193ZM370.75 1.26733V0.267326H369.75V1.26733H370.75ZM402.184 1.26733H403.184V0.267326H402.184V1.26733ZM402.184 193V194H403.184V193H402.184ZM371.75 193V1.26733H369.75V193H371.75ZM370.75 2.26733H402.184V0.267326H370.75V2.26733ZM401.184 1.26733V193H403.184V1.26733H401.184ZM402.184 192H370.75V194H402.184V192ZM523.816 193L524 193.983L524.816 193.83V193H523.816ZM496.426 195.217L496.455 194.218L496.446 194.217L496.426 195.217ZM472.557 190.391L472.151 191.305L472.161 191.309L472.557 190.391ZM456.514 175.653L455.63 176.12L455.636 176.132L456.514 175.653ZM451.428 157.001L452.427 156.974L451.428 157.001ZM451.167 13.0061V12.0061H450.167V13.0061H451.167ZM482.47 13.0061H483.47V12.0061H482.47V13.0061ZM482.6 148.523L481.601 148.544L481.601 148.554L481.601 148.564L482.6 148.523ZM485.339 158.958L486.197 158.443L486.192 158.435L485.339 158.958ZM500.339 167.697L500.427 166.7L500.339 167.697ZM523.816 166.653H524.816V165.494L523.669 165.664L523.816 166.653ZM425.602 76.7865H424.602V77.7865H425.602V76.7865ZM425.602 52.1352V51.1352H424.602V52.1352H425.602ZM523.816 52.1352H524.816V51.1352H523.816V52.1352ZM523.816 76.7865V77.7865H524.816V76.7865H523.816ZM523.633 192.017C514.395 193.744 505.336 194.476 496.455 194.218L496.397 196.217C505.428 196.48 514.63 195.734 524 193.983L523.633 192.017ZM496.446 194.217C487.686 194.046 479.861 192.458 472.954 189.473L472.161 191.309C479.34 194.412 487.427 196.041 496.406 196.217L496.446 194.217ZM472.963 189.478C466.119 186.435 460.938 181.674 457.392 175.174L455.636 176.132C459.395 183.022 464.909 188.087 472.151 191.305L472.963 189.478ZM457.398 175.185C454.247 169.223 452.597 163.155 452.427 156.974L450.428 157.029C450.606 163.542 452.347 169.909 455.63 176.12L457.398 175.185ZM452.427 156.974C452.254 150.637 452.167 143.473 452.167 135.48H450.167C450.167 143.487 450.254 150.67 450.428 157.029L452.427 156.974ZM452.167 135.48V13.0061H450.167V135.48H452.167ZM451.167 14.0061H482.47V12.0061H451.167V14.0061ZM481.47 13.0061V133.654H483.47V13.0061H481.47ZM481.47 133.654C481.47 139.311 481.513 144.274 481.601 148.544L483.6 148.503C483.513 144.251 483.47 139.301 483.47 133.654H481.47ZM481.601 148.564C481.78 152.938 482.72 156.597 484.487 159.48L486.192 158.435C484.655 155.927 483.769 152.63 483.6 148.482L481.601 148.564ZM484.482 159.472C487.801 165.003 493.112 168.06 500.251 168.693L500.427 166.7C493.828 166.116 489.139 163.346 486.197 158.443L484.482 159.472ZM500.251 168.693C507.217 169.31 515.124 168.955 523.963 167.642L523.669 165.664C514.944 166.96 507.199 167.3 500.427 166.7L500.251 168.693ZM522.816 166.653V193H524.816V166.653H522.816ZM426.602 76.7865V52.1352H424.602V76.7865H426.602ZM425.602 53.1352H523.816V51.1352H425.602V53.1352ZM522.816 52.1352V76.7865H524.816V52.1352H522.816ZM523.816 75.7865H425.602V77.7865H523.816V75.7865ZM581.106 191.826L580.65 192.716L581.106 191.826ZM564.933 178.522L564.129 179.118L564.933 178.522ZM552.281 144.089L551.285 144.183L551.286 144.192L551.287 144.201L552.281 144.089ZM551.498 52.1352V51.1352H550.498V52.1352H551.498ZM583.323 52.1352H584.323V51.1352H583.323V52.1352ZM584.236 134.698L583.242 134.808L583.243 134.81L584.236 134.698ZM588.41 150.349L587.492 150.745L587.496 150.755L587.5 150.764L588.41 150.349ZM598.323 162.61L597.728 163.414L597.735 163.419L598.323 162.61ZM628.061 165.479L627.745 164.531L628.061 165.479ZM638.626 158.827L639.333 159.534L638.626 158.827ZM646.321 145.654L647.267 145.979L646.321 145.654ZM649.191 124.524L649.583 123.604L648.191 123.01V124.524H649.191ZM667.842 132.48H668.842V131.82L668.234 131.56L667.842 132.48ZM660.799 165.088L659.898 164.654L659.895 164.66L660.799 165.088ZM640.321 188.435L640.857 189.279L640.863 189.276L640.321 188.435ZM652.973 193H651.973V194H652.973V193ZM652.973 149.306H653.973V148.306H652.973V149.306ZM649.191 149.306H648.191V150.306H649.191V149.306ZM649.191 52.1352V51.1352H648.191V52.1352H649.191ZM680.755 52.1352H681.755V51.1352H680.755V52.1352ZM680.755 193V194H681.755V193H680.755ZM606.931 196.043C596.6 196.043 588.161 194.32 581.562 190.936L580.65 192.716C587.615 196.288 596.394 198.043 606.931 198.043V196.043ZM581.562 190.936C574.898 187.519 569.632 183.178 565.736 177.926L564.129 179.118C568.232 184.648 573.749 189.177 580.65 192.716L581.562 190.936ZM565.736 177.926C561.799 172.62 558.895 166.98 557.017 161.006L555.109 161.605C557.057 167.804 560.067 173.642 564.129 179.118L565.736 177.926ZM557.017 161.006C555.12 154.97 553.875 149.294 553.274 143.976L551.287 144.201C551.904 149.666 553.18 155.468 555.109 161.605L557.017 161.006ZM553.276 143.994C552.756 138.53 552.498 134.131 552.498 130.785H550.498C550.498 134.221 550.762 138.691 551.285 144.183L553.276 143.994ZM552.498 130.785V52.1352H550.498V130.785H552.498ZM551.498 53.1352H583.323V51.1352H551.498V53.1352ZM582.323 52.1352V119.959H584.323V52.1352H582.323ZM582.323 119.959C582.323 124.352 582.631 129.302 583.242 134.808L585.23 134.587C584.625 129.137 584.323 124.262 584.323 119.959H582.323ZM583.243 134.81C583.862 140.3 585.279 145.613 587.492 150.745L589.328 149.953C587.193 144.999 585.827 139.878 585.23 134.585L583.243 134.81ZM587.5 150.764C589.831 155.874 593.243 160.095 597.728 163.414L598.918 161.806C594.707 158.69 591.511 154.738 589.32 149.934L587.5 150.764ZM597.735 163.419C602.393 166.798 608.578 168.436 616.192 168.436V166.436C608.849 166.436 603.121 164.856 598.91 161.8L597.735 163.419ZM616.192 168.436C620.302 168.436 624.365 167.765 628.377 166.428L627.745 164.531C623.93 165.802 620.081 166.436 616.192 166.436V168.436ZM628.377 166.428C632.448 165.071 636.101 162.766 639.333 159.534L637.919 158.12C634.89 161.149 631.5 163.279 627.745 164.531L628.377 166.428ZM639.333 159.534C642.684 156.183 645.318 151.647 647.267 145.979L645.375 145.329C643.498 150.791 641.002 155.037 637.919 158.12L639.333 159.534ZM647.267 145.979C649.228 140.274 650.191 133.111 650.191 124.524H648.191C648.191 132.98 647.24 139.904 645.375 145.329L647.267 145.979ZM648.798 125.444L667.45 133.4L668.234 131.56L649.583 123.604L648.798 125.444ZM666.842 132.48C666.842 144.346 664.521 155.065 659.898 164.654L661.7 165.522C666.467 155.634 668.842 144.614 668.842 132.48H666.842ZM659.895 164.66C655.366 174.23 648.666 181.87 639.78 187.594L640.863 189.276C650.063 183.348 657.015 175.423 661.703 165.516L659.895 164.66ZM639.785 187.591C630.936 193.206 620.003 196.043 606.931 196.043V198.043C620.293 198.043 631.62 195.141 640.857 189.279L639.785 187.591ZM653.973 193V149.306H651.973V193H653.973ZM652.973 148.306H649.191V150.306H652.973V148.306ZM650.191 149.306V52.1352H648.191V149.306H650.191ZM649.191 53.1352H680.755V51.1352H649.191V53.1352ZM679.755 52.1352V193H681.755V52.1352H679.755ZM680.755 192H652.973V194H680.755V192ZM717.4 193H716.4V194H717.4V193ZM717.4 52.1352V51.1352H716.4V52.1352H717.4ZM745.181 52.1352H746.181V51.1352H745.181V52.1352ZM745.181 86.4384L744.387 87.0458L746.181 89.3923V86.4384H745.181ZM741.79 82.0037L740.852 81.6564L740.661 82.1733L740.996 82.6112L741.79 82.0037ZM748.703 69.2216L747.905 68.6187L747.903 68.6216L748.703 69.2216ZM759.268 59.5697L759.793 60.4207L759.81 60.41L759.827 60.3986L759.268 59.5697ZM770.746 54.0916L771.044 55.0462L771.056 55.0422L770.746 54.0916ZM783.789 51.6134L783.847 52.6117L783.857 52.6111L783.867 52.6104L783.789 51.6134ZM796.701 52.1352H797.701V51.288L796.866 51.1488L796.701 52.1352ZM796.701 81.482L796.421 82.442L797.701 82.8154V81.482H796.701ZM782.223 80.3081L782.144 79.3113L782.143 79.3114L782.223 80.3081ZM767.615 84.8732L768.09 85.7531L768.11 85.7423L768.13 85.7307L767.615 84.8732ZM756.92 93.8729L756.125 93.2669L756.12 93.2729L756.115 93.2791L756.92 93.8729ZM750.92 106.394L751.882 106.667L751.884 106.662L750.92 106.394ZM748.964 193V194H749.964V193H748.964ZM718.4 193V52.1352H716.4V193H718.4ZM717.4 53.1352H745.181V51.1352H717.4V53.1352ZM744.181 52.1352V86.4384H746.181V52.1352H744.181ZM745.976 85.8309L742.584 81.3963L740.996 82.6112L744.387 87.0458L745.976 85.8309ZM742.728 82.351C744.435 77.7417 746.694 73.5668 749.503 69.8215L747.903 68.6216C744.973 72.5282 742.623 76.8748 740.852 81.6564L742.728 82.351ZM749.501 69.8244C752.384 66.0083 755.814 62.8759 759.793 60.4207L758.743 58.7187C754.548 61.3068 750.935 64.609 747.905 68.6187L749.501 69.8244ZM759.827 60.3986C763.221 58.1074 766.959 56.3227 771.044 55.0461L770.447 53.1371C766.185 54.4692 762.27 56.3365 758.708 58.7409L759.827 60.3986ZM771.056 55.0422C775.236 53.6773 779.499 52.8675 783.847 52.6117L783.73 50.6152C779.209 50.8811 774.777 51.7234 770.435 53.141L771.056 55.0422ZM783.867 52.6104C788.225 52.2686 792.447 52.44 796.537 53.1216L796.866 51.1488C792.608 50.4391 788.222 50.2627 783.71 50.6165L783.867 52.6104ZM795.701 52.1352V81.482H797.701V52.1352H795.701ZM796.981 80.522C792.665 79.263 787.713 78.8693 782.144 79.3113L782.303 81.305C787.69 80.8774 792.39 81.2663 796.421 82.442L796.981 80.522ZM782.143 79.3114C776.609 79.7577 771.589 81.3226 767.101 84.0157L768.13 85.7307C772.337 83.2066 777.056 81.7281 782.304 81.3049L782.143 79.3114ZM767.14 83.9933C762.677 86.4033 759 89.4934 756.125 93.2669L757.715 94.4789C760.405 90.9483 763.858 88.0386 768.09 85.7531L767.14 83.9933ZM756.115 93.2791C753.342 97.0363 751.291 101.322 749.957 106.127L751.884 106.662C753.158 102.075 755.107 98.0136 757.725 94.4668L756.115 93.2791ZM749.958 106.122C748.626 110.829 747.964 115.922 747.964 121.394H749.964C749.964 116.083 750.606 111.176 751.882 106.667L749.958 106.122ZM747.964 121.394V193H749.964V121.394H747.964ZM748.964 192H717.4V194H748.964V192ZM845.521 187.652L846.018 186.785L845.521 187.652ZM820.217 161.958L819.34 162.438L819.343 162.443L820.217 161.958ZM820.087 84.0906L820.973 84.5541L820.975 84.5513L820.087 84.0906ZM844.738 57.6132L844.227 56.7539L844.738 57.6132ZM918.432 58.5263L917.872 59.3551L917.88 59.3605L918.432 58.5263ZM941.257 87.3514L940.328 87.7216L941.257 87.3514ZM946.865 131.306V132.306H947.796L947.863 131.378L946.865 131.306ZM915.693 131.306H914.693V132.306H915.693V131.306ZM915.693 119.829H916.693V119.823L915.693 119.829ZM907.606 86.3079L908.405 85.7064L907.606 86.3079ZM853.868 87.7427L854.653 88.3632L854.656 88.359L853.868 87.7427ZM853.868 155.697L853.088 156.322L853.868 155.697ZM901.215 162.349L901.735 163.203L901.739 163.201L901.215 162.349ZM914.258 147.349L914.547 146.392L913.718 146.141L913.352 146.926L914.258 147.349ZM945.3 156.74L946.221 157.131L946.656 156.106L945.59 155.783L945.3 156.74ZM920.258 186.348L919.729 185.499L919.726 185.501L920.258 186.348ZM834.565 131.306H833.565V132.306H834.565V131.306ZM834.565 107.568V106.568H833.565V107.568H834.565ZM931.475 107.568H932.475V106.568H931.475V107.568ZM931.475 131.306V132.306H932.475V131.306H931.475ZM883.085 195.913C868.973 195.913 856.628 192.86 846.018 186.785L845.024 188.52C855.979 194.793 868.676 197.913 883.085 197.913V195.913ZM846.018 186.785C835.395 180.702 827.091 172.27 821.092 161.472L819.343 162.443C825.518 173.557 834.082 182.255 845.024 188.52L846.018 186.785ZM821.095 161.477C815.186 150.688 812.218 138.249 812.218 124.133H810.218C810.218 138.537 813.249 151.315 819.34 162.438L821.095 161.477ZM812.218 124.133C812.218 108.87 815.149 95.6884 820.973 84.5541L819.201 83.6271C813.199 95.1008 810.218 108.614 810.218 124.133H812.218ZM820.975 84.5513C826.806 73.3174 834.896 64.6333 845.25 58.4726L844.227 56.7539C833.538 63.1145 825.194 72.082 819.199 83.6299L820.975 84.5513ZM845.25 58.4726C855.597 52.3154 867.589 49.2223 881.259 49.2223V47.2223C867.277 47.2223 854.922 50.3897 844.227 56.7539L845.25 58.4726ZM881.259 49.2223C895.706 49.2223 907.893 52.6171 917.872 59.355L918.991 57.6975C908.623 50.6967 896.028 47.2223 881.259 47.2223V49.2223ZM917.88 59.3605C927.955 66.0204 935.44 75.4593 940.328 87.7216L942.186 86.9811C937.161 74.3748 929.429 64.5969 918.983 57.692L917.88 59.3605ZM940.328 87.7216C945.216 99.9837 947.077 114.478 945.868 131.234L947.863 131.378C949.088 114.397 947.211 99.5878 942.186 86.9811L940.328 87.7216ZM946.865 130.306H915.693V132.306H946.865V130.306ZM916.693 131.306V119.829H914.693V131.306H916.693ZM916.693 119.823C916.605 104.445 913.903 93.0076 908.405 85.7064L906.807 86.9095C911.917 93.6947 914.606 104.604 914.693 119.834L916.693 119.823ZM908.405 85.7064C902.858 78.3416 894.168 74.7431 882.563 74.7431V76.7431C893.741 76.7431 901.745 80.1878 906.807 86.9095L908.405 85.7064ZM882.563 74.7431C869.476 74.7431 859.58 78.8215 853.081 87.1264L854.656 88.359C860.678 80.6644 869.912 76.7431 882.563 76.7431V74.7431ZM853.084 87.1222C846.628 95.2823 843.477 107.149 843.477 122.568H845.477C845.477 107.378 848.588 96.0285 854.653 88.3632L853.084 87.1222ZM843.477 122.568C843.477 136.961 846.636 148.257 853.088 156.322L854.649 155.072C848.58 147.485 845.477 136.695 845.477 122.568H843.477ZM853.088 156.322C859.576 164.432 869.022 168.436 881.259 168.436V166.436C869.496 166.436 860.682 162.613 854.649 155.072L853.088 156.322ZM881.259 168.436C889.147 168.436 895.986 166.706 901.735 163.203L900.694 161.495C895.313 164.774 888.849 166.436 881.259 166.436V168.436ZM901.739 163.201C907.571 159.611 912.045 154.455 915.164 147.772L913.352 146.926C910.384 153.286 906.162 158.13 900.691 161.497L901.739 163.201ZM913.968 148.307L945.011 157.698L945.59 155.783L914.547 146.392L913.968 148.307ZM944.38 156.349C939.066 168.863 930.852 178.569 919.729 185.499L920.786 187.197C932.271 180.041 940.752 170.009 946.221 157.131L944.38 156.349ZM919.726 185.501C908.672 192.442 896.466 195.913 883.085 195.913V197.913C896.833 197.913 909.409 194.341 920.789 187.195L919.726 185.501ZM835.565 131.306V107.568H833.565V131.306H835.565ZM834.565 108.568H931.475V106.568H834.565V108.568ZM930.475 107.568V131.306H932.475V107.568H930.475ZM931.475 130.306H834.565V132.306H931.475V130.306ZM1064.32 187.783L1063.85 188.663L1063.85 188.665L1064.32 187.783ZM1037.71 162.088L1036.85 162.586L1036.85 162.591L1037.71 162.088ZM1028.19 5.44109L1028.18 4.44112L1027.19 4.44925V5.44109H1028.19ZM1060.02 5.18023H1061.02V4.172L1060.01 4.18027L1060.02 5.18023ZM1063.54 141.35L1062.62 141.738L1062.62 141.75L1063.54 141.35ZM1073.32 155.566L1072.63 156.289L1072.64 156.296L1073.32 155.566ZM1120.41 164.305L1120.76 165.239L1120.77 165.236L1120.41 164.305ZM1134.49 155.436L1135.17 156.166L1135.18 156.158L1134.49 155.436ZM1147.66 5.18023V4.18023H1146.66V5.18023H1147.66ZM1179.49 5.18023H1180.49V4.18023H1179.49V5.18023ZM1169.84 162.088L1168.97 161.585L1168.97 161.59L1169.84 162.088ZM1143.23 187.783L1142.76 186.901L1142.76 186.902L1143.23 187.783ZM1103.84 195.913C1089.02 195.913 1076.02 192.899 1064.79 186.901L1063.85 188.665C1075.41 194.84 1088.75 197.913 1103.84 197.913V195.913ZM1064.79 186.902C1053.65 180.902 1044.92 172.468 1038.58 161.585L1036.85 162.591C1043.38 173.794 1052.38 182.49 1063.85 188.663L1064.79 186.902ZM1038.58 161.59C1032.33 150.722 1029.19 137.943 1029.19 123.22H1027.19C1027.19 138.234 1030.4 151.368 1036.85 162.586L1038.58 161.59ZM1029.19 123.22V5.44109H1027.19V123.22H1029.19ZM1028.2 6.44106L1060.02 6.1802L1060.01 4.18027L1028.18 4.44112L1028.2 6.44106ZM1059.02 5.18023V122.437H1061.02V5.18023H1059.02ZM1059.02 122.437C1059.02 129.592 1060.21 136.032 1062.62 141.738L1064.46 140.961C1062.17 135.538 1061.02 129.369 1061.02 122.437H1059.02ZM1062.62 141.75C1065.1 147.427 1068.44 152.278 1072.63 156.289L1074.01 154.844C1070.03 151.029 1066.84 146.402 1064.45 140.949L1062.62 141.75ZM1072.64 156.296C1076.82 160.213 1081.63 163.195 1087.05 165.241L1087.76 163.37C1082.58 161.415 1077.99 158.572 1074 154.836L1072.64 156.296ZM1087.05 165.241C1092.47 167.283 1098.07 168.305 1103.84 168.305V166.305C1098.31 166.305 1092.95 165.327 1087.76 163.37L1087.05 165.241ZM1103.84 168.305C1109.78 168.305 1115.43 167.285 1120.76 165.239L1120.05 163.372C1114.95 165.326 1109.55 166.305 1103.84 166.305V168.305ZM1120.77 165.236C1126.19 163.104 1130.99 160.08 1135.17 156.166L1133.81 154.706C1129.82 158.444 1125.23 161.333 1120.04 163.375L1120.77 165.236ZM1135.18 156.158C1139.38 152.145 1142.67 147.29 1145.06 141.608L1143.22 140.83C1140.92 146.278 1137.78 150.901 1133.8 154.714L1135.18 156.158ZM1145.06 141.608C1147.47 135.903 1148.66 129.507 1148.66 122.437H1146.66C1146.66 129.28 1145.51 135.406 1143.22 140.83L1145.06 141.608ZM1148.66 122.437V5.18023H1146.66V122.437H1148.66ZM1147.66 6.18023H1179.49V4.18023H1147.66V6.18023ZM1178.49 5.18023V123.22H1180.49V5.18023H1178.49ZM1178.49 123.22C1178.49 137.941 1175.31 150.718 1168.97 161.585L1170.7 162.591C1177.24 151.372 1180.49 138.236 1180.49 123.22H1178.49ZM1168.97 161.59C1162.72 172.468 1153.99 180.901 1142.76 186.901L1143.7 188.665C1155.26 182.491 1164.26 173.794 1170.71 162.586L1168.97 161.59ZM1142.76 186.902C1131.62 192.899 1118.66 195.913 1103.84 195.913V197.913C1118.93 197.913 1132.23 194.841 1143.7 188.663L1142.76 186.902ZM1218.55 193H1217.55V194H1218.55V193ZM1218.55 5.18023V4.18023H1217.55V5.18023H1218.55ZM1249.98 5.18023H1250.98V4.18023H1249.98V5.18023ZM1249.98 193V194H1250.98V193H1249.98ZM1219.55 193V5.18023H1217.55V193H1219.55ZM1218.55 6.18023H1249.98V4.18023H1218.55V6.18023ZM1248.98 5.18023V193H1250.98V5.18023H1248.98ZM1249.98 192H1218.55V194H1249.98V192Z" fill="url(#paint0_linear_179_3350)" mask="url(#path-1-outside-1_179_3350)"/>
<defs>
<linearGradient id="paint0_linear_179_3350" x1="638" y1="-85" x2="638" y2="193" gradientUnits="userSpaceOnUse">
<stop offset="0.405" stop-color="#C9C9CC"/>
<stop offset="1"/>
</linearGradient>
</defs>
</svg>
